# xmcd
#
# Track frame offsets: 
#        150
#        21691
#        66970
#        94224
#        123289
#        166306
#        188958
#        220315
#        242397
#
# Disc length: 3823 seconds
#
# Revision: 0
# Processed by: cddbd v1.5.2PL0 Copyright (c) Steve Scherf et al.
# Submitted via: ExactAudioCopy v0.95b3
#
DISCID=7f0eed09
DTITLE=Bloodrock  - Bloodrock Live (Vinyl)  
DYEAR=1900
DGENRE=
TTITLE0=Castle Of My Thoughts
TTITLE1=Breach Of Lease
TTITLE2=Lucky In The Morning
TTITLE3=Kool-Aid-Kids
TTITLE4=D.O.A.
TTITLE5=You Gotta Roll
TTITLE6=Cheater
TTITLE7=Jessica
TTITLE8=Gotta Find A Way
EXTD=
EXTT0=
EXTT1=
EXTT2=
EXTT3=
EXTT4=
EXTT5=
EXTT6=
EXTT7=
EXTT8=
PLAYORDER=
